<svg width="1440" height="191" viewBox="0 0 1440 191" fill="none" xmlns="http://www.w3.org/2000/svg">
<path d="M-69 85.5L3.48365 67.5414C65.5003 52.176 130.639 55.0878 191.037 75.9252L298.5 113" stroke="#9F9F9F"/>
<path d="M203 83L293.765 125.021C323.122 138.612 354.172 148.195 386.082 153.514L464 166.5L542.5 170" stroke="#9F9F9F"/>
<path d="M856.5 74.5L818.752 100.437C737.818 156.048 639.957 181.542 542.177 172.489L531.5 171.5" stroke="#9F9F9F"/>
<path d="M846.5 82.5L959.711 39.558C1025.12 14.7482 1098.5 23.2199 1156.53 62.2811L1245.47 122.145C1262.49 133.602 1283.29 138.029 1303.5 134.5V134.5" stroke="#9F9F9F"/>
<path d="M1227 111.5L1246 123.583C1310.93 164.879 1393.65 165.815 1459.5 126V126" stroke="#9F9F9F"/>
</svg>
