<svg width="26" height="25" viewBox="0 0 26 25" fill="none" xmlns="http://www.w3.org/2000/svg">
<path d="M25.98 10.0107C26.1099 9.35566 25.5903 8.56958 24.9408 8.56958L17.5365 7.52146L14.1591 0.708726C14.0292 0.446698 13.8993 0.315684 13.6395 0.18467C12.99 -0.208373 12.2106 0.0536556 11.8209 0.708726L8.57339 7.52146L1.1691 8.56958C0.779399 8.56958 0.519599 8.70059 0.389699 8.96262C-0.1299 9.48668 -0.1299 10.2728 0.389699 10.7968L5.71559 16.0374L4.41659 23.5052C4.41659 23.7672 4.41659 24.0292 4.54649 24.2913C4.93619 24.9463 5.71559 25.2084 6.36509 24.8153L12.99 21.278L19.6149 24.8153C19.7448 24.9463 20.0046 24.9463 20.2644 24.9463C20.3943 24.9463 20.3943 24.9463 20.5242 24.9463C21.1737 24.8153 21.6933 24.1603 21.5634 23.3742L20.2644 15.9064L25.5903 10.6658C25.8501 10.5348 25.98 10.2728 25.98 10.0107Z" fill="#F1CB05"/>
</svg>
